{"title":"The.Lone.Ranger.2013.TS.XViD- UNiQUE","uid":8673161,"size":1562470951,"categoryP":"video","categoryS":"movies","magnet":"?xt=urn:btih:f4a2033de7e3616f2a9fce45f3fede5574a66efa&amp;dn=The.Lone.Ranger.2013.TS.XViD-+UNiQUE&amp;tr=udp%3A%2F%2Ftracker.openbittorrent.com%3A80&amp;tr=udp%3A%2F%2Fopen.demonii.com%3A1337&amp;tr=udp%3A%2F%2Ftracker.coppersurfer.tk%3A6969&amp;tr=udp%3A%2F%2Fexodus.desync.com%3A6969","seeders":7,"leechers":0,"uploader":"Thhaque","files":3,"time":1373536672,"description":"The.Lone.Ranger.2013.TS.XViD- UNiQUE\n\n\nGenre: Action | Adventure | Western\nYear : 2013\nCountry : USA\nLanguage : English \nRuntime : 140 min.\nCast : Johnny Depp, Armie Hammer, William Fichtner \nDirector : Gore Verbinski\nQuality : TS\n\n\nInfo\n\nFormat                                   : AVI\nFormat/Info                              : Audio Video Interleave\nFile size                                : 1.45 GiB\nDuration                                 : 2h 20mn\nOverall bit rate                         : 1 473 Kbps\nWriting application                      : VirtualDubMod 1.5.10.2 (build 2540/release)\nWriting library                          : VirtualDubMod build 2540/release\n\nVideo\nID                                       : 0\nFormat                                   : MPEG-4 Visual\nFormat profile                           : Advanced Simple@L5\nFormat settings, BVOP                    : 2\nFormat settings, QPel                    : No\nFormat settings, GMC                     : No warppoints\nFormat settings, Matrix                  : Default (H.263)\nMuxing mode                              : Packed bitstream\nCodec ID                                 : XVID\nCodec ID/Hint                            : XviD\nDuration                                 : 2h 20mn\nBit rate                                 : 1 336 Kbps\nWidth                                    : 720 pixels\nHeight                                   : 338 pixels\nDisplay aspect ratio                     : 2.130\nFrame rate                               : 24.000 fps\nColor space                              : YUV\nChroma subsampling                       : 4:2:0\nBit depth                                : 8 bits\nScan type                                : Progressive\nCompression mode                         : Lossy\nBits/(Pixel*Frame)                       : 0.229\nStream size                              : 1.31 GiB (91%)\nWriting library                          : XviD 64\n\nAudio\nID                                       : 1\nFormat                                   : MPEG Audio\nFormat version                           : Version 1\nFormat profile                           : Layer 3\nCodec ID                                 : 55\nCodec ID/Hint                            : MP3\nDuration                                 : 2h 20mn\nBit rate mode                            : Constant\nBit rate                                 : 128 Kbps\nChannel(s)                               : 2 channels\nSampling rate                            : 44.1 KHz\nCompression mode                         : Lossy\nStream size                              : 129 MiB (9%)\nAlignment                                : Split accross interleaves\nInterleave, duration                     : 42 ms (1.00 video frame)\nInterleave, preload duration             : 500 ms\n\nPlot : Native American warrior Tonto recounts the untold tales that transformed John Reid, a man of the law, into a legend of justice.","torrent":{"xt":"urn:btih:f4a2033de7e3616f2a9fce45f3fede5574a66efa","amp;dn":"The.Lone.Ranger.2013.TS.XViD-+UNiQUE","amp;tr":["udp%3A%2F%2Ftracker.openbittorrent.com%3A80","udp%3A%2F%2Fopen.demonii.com%3A1337","udp%3A%2F%2Ftracker.coppersurfer.tk%3A6969","udp%3A%2F%2Fexodus.desync.com%3A6969"],"infoHash":"f4a2033de7e3616f2a9fce45f3fede5574a66efa","infoHashBuffer":{"type":"Buffer","data":[244,162,3,61,231,227,97,111,42,159,206,69,243,254,222,85,116,166,110,250]},"announce":[],"urlList":[]}}